<?xml version="1.0" encoding="UTF-8" standalone="no"?>
<!-- Created with Inkscape (http://www.inkscape.org/) -->

<svg
   version="1.1"
   id="svg1"
   width="2560"
   height="1709.3333"
   viewBox="0 0 2560 1709.3333"
   xmlns="http://www.w3.org/2000/svg"
   xmlns:svg="http://www.w3.org/2000/svg">
  <defs
     id="defs1" />
  <g
     id="g1">
    <path
       style="fill:#000000"
       d="m 882.23652,385.97848 c -1.50053,11.78279 1.00196,23.27484 2.04221,34.71764 1.76651,19.43161 0,39.66029 0,59.22421 0,16.05487 1.77102,33.07396 0,49.01314 -1.73946,15.65514 -5.57743,31.42236 -8.16886,46.97092 -0.77988,4.67931 0,12.26607 0,16.33772 0,15.65697 0,31.31395 0,46.97092 0,11.57255 1.36148,0.68074 -2.04221,4.08443 -1.68894,1.68894 0,13.35363 0,16.33771 0,23.1451 0,46.29019 0,69.43529 0,28.59099 0,57.18199 0,85.77299 0,17.24662 2.46654,37.87403 0,55.13978 -0.30443,2.13105 -1.62004,4.01577 -2.04221,6.12664 -0.26701,1.33504 0,2.72296 0,4.08443 0,2.04222 0.40051,4.12409 0,6.12665 -0.29853,1.49261 -1.79197,2.58296 -2.04222,4.08442 -2.62606,15.75636 1.32839,33.07252 0,49.01314 -0.28826,3.45911 -1.82569,6.74674 -2.04221,10.21107 -0.77941,12.47061 0,26.11826 0,38.80207 0,17.50475 -1.45335,35.65735 0,53.09755 5.31491,63.779 0.0982,-17.201 4.08443,30.6332 0.48739,5.8488 -2.34831,27.9789 0,32.6755 0.43053,0.861 1.80872,1.1082 2.04221,2.0422 1.41888,5.6755 -2.13174,26.4592 0,28.591 2.6081,2.6081 21.8934,-1.4713 24.50657,-4.0845 0.48135,-0.4813 -0.48135,-1.5608 0,-2.0422 1.87212,-1.8721 13.93951,-1.2428 16.33771,-2.0422 2.66273,-0.8876 5.65842,-0.787 8.16886,-2.0422 0.60887,-0.3044 -0.48135,-1.5609 0,-2.0422 1.92542,-1.9254 5.4459,0 8.16886,0 18.37992,0 36.75985,0 55.13978,0 39.54586,0 79.96186,2.33 118.44846,-4.0844 9.509,-1.5849 20.9935,0 30.6332,0 24.5065,0 49.0131,0 73.5197,0 40.8443,0 81.6885,0 122.5328,0 23.7398,0 52.1539,2.6009 75.562,0 3.4498,-0.3834 6.7542,-1.728 10.211,-2.0423 23.2969,-2.1178 48.1513,0 71.4775,0 24.3474,0 47.088,-2.0422 71.4775,-2.0422 6.281,0 56.456,0.726 57.182,0 0.4814,-0.4813 -0.6089,-1.7377 0,-2.0422 1.2178,-0.6089 2.8667,0.6089 4.0844,0 1.1248,-0.5624 0,-17.2687 0,-18.3799 0,-22.0236 -0.5794,-43.4096 -2.0422,-65.3509 -0.9488,-14.2327 0.8898,-28.6496 0,-42.88646 -0.8561,-13.69813 -2.7284,-27.28477 -4.0844,-40.84428 -1.3405,-13.40531 0,-27.3552 0,-40.84429 0,-13.48827 -1.2175,-27.45171 0,-40.84428 0.3749,-4.12376 1.7246,-8.12471 2.0422,-12.25329 0.8827,-11.47458 -1.1451,-23.26633 0,-34.71764 1.0922,-10.92209 3.1335,-21.74012 4.0844,-32.67542 1.1649,-13.3961 0,-27.3833 0,-40.84429 0,-28.59099 0,-57.18199 0,-85.77299 0,-29.95247 0,-59.90495 0,-89.85742 0,-12.93403 1.287,-25.93224 0,-38.80207 -0.3453,-3.45387 -1.7279,-6.75423 -2.0422,-10.21107 -0.7395,-8.13531 0.8129,-16.37826 0,-24.50657 -0.8234,-8.23415 -4.564,-16.69375 -6.1266,-24.50657 -1.2828,-6.41383 0.6494,-13.9276 0,-20.42214 -0.8513,-8.5124 -2.7069,-14.19896 -4.0844,-22.46436 -0.8104,-4.86213 -1.1996,-24.99218 0,-28.591 0.8672,-2.60158 3.6377,-4.97773 2.0422,-8.16886 -0.2791,-0.55821 -17.0199,-3.67641 -18.38,-4.08442 -35.4056,-10.6217 14.8953,2.5706 -28.591,-6.12665 -6.1628,-1.23256 -12.1678,-4.35176 -18.3799,-6.12664 -3.9273,-1.12208 -8.2908,0.99062 -12.2533,0 -0.6604,-0.1651 0.4814,-1.56086 0,-2.04221 -1.5038,-1.50387 -13.9327,-0.60125 -16.3377,0 -6.3839,1.59599 -10.3169,6.16193 -16.3377,8.16885 -12.8157,4.27189 -23.0596,4.08443 -36.7598,4.08443 -43.5673,0 -87.1345,0 -130.7018,0 -20.073,0 -41.2406,-2.00257 -61.2664,0 -22.5453,2.25454 -44.9144,0.16899 -67.393,2.04222 -25.3194,2.10995 -13.161,2.04221 -22.4644,2.04221 -38.8021,0 -77.6041,0 -116.4062,0 -15.2182,0 -31.7905,1.68671 -46.9709,0 -27.63475,-3.07052 -55.79893,-2.04221 -83.73081,-2.04221 -9.92992,0 -20.81509,1.40259 -30.63322,0 -3.43621,-0.49089 -6.73997,-2.04222 -10.21107,-2.04222 -4.14077,0 -8.11251,2.04222 -12.25328,2.04222 -5.48829,0 -10.85564,-1.78117 -16.33772,-2.04222 -52.93218,-2.52058 -106.33409,1.35792 -159.2927,0 -127.24,-3.26256 32.85521,0.72826 -85.773,-8.16885 -25.79559,-1.93467 -51.73609,0 -77.60413,0 -39.57936,0 -76.41047,-2.04222 -116.40621,-2.04222 -78.28488,0 -156.56975,0 -234.85463,0 -108.236468,0 -216.693011,2.18252 -324.71205,-6.12664 -0.008,-6e-4 0,-4.81746 0,-8.16886 0,-27.91026 0,-55.82052 0,-83.73078 0,-74.88118 0,-149.76237 0,-224.643556 0,-20.422142 0,-40.844283 0,-61.266425 0,-7.488118 -1.81614,-15.199813 0,-22.464356 5.3927,-21.570803 3.20813,8.176332 6.12664,-12.253285 1.54336,-10.803508 -1.09784,-18.226466 4.08443,-28.590998 0.30444,-0.60887 1.39641,0.215269 2.04221,0 3.47777,-1.159255 6.7659,-2.831637 10.21108,-4.084428 38.527347,-14.009946 49.547416,-18.628514 95.984061,-24.506572 33.202177,-4.20281 66.68493,-5.80542 100.068494,-8.16885 138.640545,-9.81526 133.074835,-9.14735 277.741125,-10.21108 75.53155,-0.55537 158.79127,-0.41144 234.85463,2.04222 28.60851,0.92285 57.16921,3.02503 85.77299,4.08443 26.53932,0.98293 53.14926,0.25187 79.64636,2.04221 23.92637,1.61665 47.56156,6.40457 71.47749,8.16886 59.16118,4.364347 118.45658,6.668228 177.67261,10.211069 64.0052,3.829367 127.9938,7.940405 191.9682,12.253285 17.0341,1.14837 33.9969,3.383397 51.0553,4.084428 32.655,1.341984 65.3729,0.662494 98.0263,2.042214 15.702,0.663467 31.2685,3.43016 46.9709,4.084428 6.1354,0.25564 78.006,-0.194286 89.8574,0 10.1987,0.167192 120.309,2.574691 142.955,4.084429 71.3075,4.753829 60.772,7.098302 132.7439,14.295499 31.2762,3.127612 62.5794,6.078023 93.9419,8.168856 7.4715,0.498103 15.007,-0.677942 22.4644,0 7.5796,0.689057 14.8847,3.395372 22.4643,4.084429 7.4574,0.677942 14.9983,-0.574313 22.4644,0 37.5426,2.887892 74.9264,10.140457 112.3217,14.295499 52.3509,5.816757 104.8748,10.518186 157.2505,16.337713 29.9829,3.331433 59.879,6.9990915 89.8575,10.211071 10.2428,1.0974442 20.351,3.4549069 30.6332,4.0844283 29.6459,1.8150578 58.4365,2.0422142 87.8152,2.0422142 32.4789,0 -4.8947,-0.3796306 81.6885,14.2954995 14.9023,2.525813 29.8942,4.571338 44.9288,6.126642 5.921,0.612526 21.5729,1.754506 28.591,0 7.7251,-1.931297 9.0064,-6.126642 8.1688,-6.126642 -0.6807,0 0.084,1.366732 0,2.042214 -0.597,4.776374 -1.3368,9.533924 -2.0422,14.295499 -2.0175,13.618438 -4.2241,27.209304 -6.1266,40.844283 -2.1821,15.638099 -3.8937,31.340022 -6.1267,46.970922 -2.5325,17.72745 -6.604,35.25865 -8.1688,53.09757 -1.8451,21.03309 -0.3174,42.26536 -2.0423,63.30864 -1.6831,20.53401 -6.2337,40.75463 -8.1688,61.26643 -4.8743,51.66765 -7.5159,103.52788 -12.2533,155.20827 -11.7854,128.56816 -9.0054,48.67736 -16.3377,167.46156 -3.8209,61.89787 -2.9816,122.0393 -4.0844,183.79928 -1.3949,78.11168 -4.7839,156.71664 -2.0423,234.85459 2.3563,67.1537 5.154,43.2727 10.2111,110.2796 1.333,17.662 0.474,35.4549 2.0422,53.0976 3.1493,35.4289 13.1297,62.4386 20.4222,95.984 5.666,26.0639 -1.0983,9.9025 4.0844,30.6332 3.2054,12.8215 10.248,25.7679 12.2533,38.8021 0.7246,4.7098 -0.9345,9.6229 0,14.2955 1.1406,5.7033 4.716,10.6952 6.1266,16.3377 4.5352,18.1406 6.2322,49.0827 8.1689,65.3509 2.9286,24.6007 8.808,58.4759 10.2111,83.7308 1.6992,30.586 0,61.2664 0,91.8996 0,21.1029 0,42.2058 0,63.3086 0,6.8074 1.651,13.8181 0,20.4222 -0.1362,0.5446 -5.6502,-0.4765 -6.1267,0 -0.4813,0.4813 0,1.3615 0,2.0422 -6.8074,1.3615 -13.634,2.6298 -20.4221,4.0844 -12.2736,2.6301 -24.4912,5.5162 -36.7599,8.1689 -22.8154,4.933 -61.3624,13.1422 -83.7308,16.3377 -50.9542,7.2792 -103.8813,9.7697 -155.2082,12.2533 -61.7149,2.9862 -66.2317,0.3063 -126.6173,6.1266 -36.1421,3.4836 -72.0936,8.7875 -108.2374,12.2533 -56.1975,5.3888 -113.133,4.0844 -169.5037,4.0844 -27.9103,0 -55.8532,1.349 -83.7308,0 -14.4238,-0.6979 -28.5382,-4.4961 -42.8865,-6.1266 -72.8611,-8.2797 -146.3949,-12.3609 -218.5169,-26.5488 -24.6323,-4.8457 -48.9589,-11.1421 -73.5197,-16.3377 -5.2637,-1.1135 -43.256,-7.8954 -53.0976,-10.2111 -4.8241,-1.1351 -9.4196,-3.1979 -14.2955,-4.0844 -2.679,-0.4871 -5.5507,0.748 -8.1689,0 -2.36,-0.6743 -3.7455,-3.4891 -6.1266,-4.0844 -8.6864,-2.1716 -17.6498,-3.0957 -26.5488,-4.0845 -59.5228,-6.6136 1.4373,1.608 -55.1398,-2.0422 -12.3031,-0.7937 -24.4482,-3.4364 -36.7598,-4.0844 -27.1919,-1.4312 -54.4591,0 -81.6886,0 -46.7706,0 -94.184,-1.947 -140.9128,0 -33.38963,1.3912 -66.6805,4.6957 -100.06847,6.1266 -14.28239,0.6121 -28.59486,-0.3323 -42.8865,0 -14.98765,0.3486 -29.94055,1.7164 -44.92871,2.0423 -48.30965,1.0502 -96.68281,-0.8331 -144.99721,0 -45.05128,0.7767 -89.76093,2.0422 -134.78613,2.0422 -53.70883,0 -107.6527,-1.5338 -161.33492,0 -35.42152,1.012 -70.82278,2.9053 -106.19514,4.0844 -67.17654,2.2392 -134.99331,0 -202.179197,0 -27.229522,0 -54.459044,0 -81.6885664,0 -6.1266424,0 -12.2532849,0 -18.3799276,0 -4.084428,0 -8.168856,0 -12.253285,0 -0.680738,0 -1.789394,0.632 -2.042214,0 -0.90875,-2.2719 -3.792452,-21.1018 -4.084428,-22.4644 -11.025656,-51.453 -6.362748,-104.8733 -8.168857,-157.2505 -0.329274,-9.5489 -1.688582,-19.0429 -2.042214,-28.591 -1.658837,-44.7885 0,-89.9533 0,-134.7861 0,-26.2336 -2.177377,-53.5178 0,-79.6463 1.990617,-23.8874 8.613439,-47.5131 10.211071,-71.4775 0.362256,-5.4339 -0.675482,-10.9339 0,-16.3377 2.604598,-20.8368 12.599421,-40.0655 14.295499,-61.2665 0.759998,-9.5 -1.052449,-19.1189 0,-28.591 1.002959,-9.0266 4.4114966,-17.63 6.1266424,-26.5488 5.7767016,-30.0388 9.4861505,-61.4611 12.2532849,-91.8996 1.0495403,-11.54493 0.8493505,-23.18662 2.0422142,-34.71763 2.6465056,-25.58289 5.3773605,-20.95169 6.1266425,-44.92871 0.467779,-14.96893 -0.440287,-29.95895 0,-44.92871 0.240989,-8.19363 1.686152,-16.31714 2.042214,-24.50657 0.883251,-20.31478 0,-40.92533 0,-61.26643 0,-18.37993 1.52637,-36.82334 0,-55.13978 -1.29915,-15.58981 -2.297129,-5.10409 -6.1266424,-20.42214 -1.485929,-5.94372 1.0959672,-12.35211 0,-18.37993 -0.6557737,-3.60676 -3.3654888,-6.61637 -4.0844283,-10.21107 -0.6675186,-3.33759 0.6675186,-6.87348 0,-10.21107 C 3.3654888,682.58926 1.0533848,679.48417 0,675.97289 c -2.289444,-7.63148 -2.1453847,-14.70818 -4.0844283,-22.46436 -2.5657841,-10.26314 -5.6165076,-20.42382 -8.1688567,-30.63321 -2.682365,-10.72946 -1.960023,-22.0534 -4.084428,-32.67543 -1.140657,-5.70328 -5.170461,-10.60062 -6.126643,-16.33771 -1.355089,-8.13053 0,-18.34537 0,-26.54879 0,-14.29549 0,-28.59099 0,-42.88649 0,-31.92973 -2.615933,-68.67729 0,-100.0685 0.680738,-6.12664 1.361476,-12.25328 2.042214,-18.37992 0.680738,-2.72296 1.694079,-5.38378 2.042215,-8.16886 0.746502,-5.97202 -0.990222,-12.4386 0,-18.37993 1.909988,-11.45993 1.656487,-4.58373 4.084428,-14.2955 1.121215,-4.48486 -1.121216,-9.81063 0,-14.2955 0.233491,-0.93396 1.808723,-1.10825 2.042214,-2.04221 0.49531,-1.98124 -0.49531,-4.1454 0,-6.12664 0.233491,-0.93397 1.808723,-1.10825 2.042214,-2.04222 0.4953099,-1.98124 -0.335738,-4.11221 0,-6.12664 0.8429526,-5.05771 2.8897566,-9.51681 4.0844285,-14.2955 0.7999409,-3.19976 -0.7156674,-6.99057 0,-10.21107 2.2318741,-10.04343 6.47985264,-20.49919 8.1688567,-30.63321 1.0072138,-6.04328 -0.6765745,-12.29076 0,-18.37993 0.5472818,-4.92554 3.5371464,-9.36996 4.0844283,-14.2955 0.2773377,-2.49604 -0.3328053,-20.96673 0,-22.46435 0.5324419,-2.39599 3.4891401,-3.74549 4.0844285,-6.12665 1.856867,-7.42747 1.064786,-25.92078 2.042214,-34.71764 -1.318423,-6.09382 3.290558,-10.78062 4.084428,-16.33771 0.577626,-4.04338 -1.291609,-8.37846 0,-12.25329 0.304436,-0.9133 1.684673,-1.14836 2.042214,-2.04221 3.819468,-9.54867 0.958721,-6.58627 2.042215,-16.33771 0.936595,-8.42936 2.43884,-18.320846 4.084428,-26.548787 1.39382,-6.969099 4.95824,-13.411728 6.126642,-20.422142 1.76671,-10.600254 0.148689,-22.261037 2.042215,-32.675426 C 35.28765,22.392626 36.759855,13.725499 36.759855,0 c 0,-2.793486 -1.650207,-25.290584 0,-28.590998 2.722952,-5.445905 2.042214,6.126642 2.042214,-2.042214"
       id="path8" />
  </g>
</svg>
